<?xml version="1.0" encoding="utf-8"?>
<!-- Generator: Adobe Illustrator 23.1.1, SVG Export Plug-In . SVG Version: 6.00 Build 0)  -->
<svg version="1.1" id="Layer_1" xmlns="http://www.w3.org/2000/svg" xmlns:xlink="http://www.w3.org/1999/xlink" x="0px" y="0px"
	 viewBox="0 0 1000 1000" style="enable-background:new 0 0 1000 1000;" xml:space="preserve">
<style type="text/css">
	.st0{fill:#FFFFFF;}
	.st1{fill:#D35375;}
	.st2{fill:#E5E5E5;}
	.st3{fill:none;stroke:#4D4D61;stroke-width:3;stroke-linecap:round;stroke-linejoin:round;stroke-miterlimit:10;}
	.st4{fill:#4D4D61;}
	.st5{fill:#56566D;}
	.st6{fill:#F7E3CB;}
	.st7{fill:#EDD6BC;}
	.st8{fill:#FFD680;}
	.st9{fill:none;stroke:#4D4D61;stroke-width:2;stroke-linecap:round;stroke-linejoin:round;stroke-miterlimit:10;}
	.st10{fill:#EABD6C;}
	.st11{fill:#CA4361;}
	.st12{fill:#595D5C;}
	.st13{fill:#9B8462;}
	.st14{fill:#E1C885;}
	.st15{fill:#A3886C;}
	.st16{fill:none;stroke:#4D4D61;stroke-width:2;stroke-miterlimit:10;}
	.st17{fill:#B0977A;}
	.st18{fill:#475C80;}
	.st19{opacity:0.57;fill:#6987AF;}
	.st20{opacity:0.44;fill:#66667C;}
	.st21{fill:#B98C78;}
	.st22{fill:#C9A08F;}
	.st23{fill:#575770;}
	.st24{fill:#83ABBA;}
	.st25{fill:#92B4C3;}
	.st26{fill:#ACD3E5;}
	.st27{opacity:0.74;fill:#E1C885;}
	.st28{fill:#9EC0CC;}
</style>
<rect class="st0" width="1000" height="1000"/>

<ellipse id="XMLID_173_" class="st2" cx="500" cy="710.6" rx="303.5" ry="28.4"/>
<path id="XMLID_12_" class="st3" d="M620.5,675.9L620.5,675.9c8.9,0,16.1-7.2,16.1-16.1v-24.6c0-8.9-7.2-16.1-16.1-16.1l0,0
	c-8.9,0-16.1,7.2-16.1,16.1v24.6C604.4,668.7,611.6,675.9,620.5,675.9z"/>
<path id="XMLID_83_" class="st4" d="M620.5,675.9L620.5,675.9c8.9,0,16.1-7.2,16.1-16.1v-24.6c0-8.9-7.2-16.1-16.1-16.1l0,0
	c-8.9,0-16.1,7.2-16.1,16.1v24.6C604.4,668.7,611.6,675.9,620.5,675.9z"/>
<path id="XMLID_169_" class="st5" d="M608.9,665.6v-24.6c0-8.9,7.2-16.1,16.1-16.1h0c3.9,0,7.4,1.4,10.2,3.6
	c-2.5-5.6-8.1-9.5-14.7-9.5h0c-8.9,0-16.1,7.2-16.1,16.1v24.6c0,5.1,2.3,9.6,6,12.5C609.4,670.3,608.9,668,608.9,665.6z"/>
<ellipse id="XMLID_162_" class="st4" cx="620.3" cy="622.4" rx="8.9" ry="3.2"/>
<path id="XMLID_159_" class="st4" d="M620.5,622.4L620.5,622.4c3.3,0,6-2.7,6-6v-27.7c0-2.8-2.3-5.1-5.1-5.1h-1.7
	c-2.8,0-5.1,2.3-5.1,5.1v27.7C614.5,619.7,617.2,622.4,620.5,622.4z"/>
<path id="XMLID_11_" class="st3" d="M620.5,622.4L620.5,622.4c3.3,0,6-2.7,6-6v-27.8c0-2.8-2.2-5-5-5h-1.9c-2.8,0-5,2.2-5,5v27.8
	C614.5,619.7,617.2,622.4,620.5,622.4z"/>
<path id="XMLID_121_" class="st2" d="M494.5,377.4h-17.1c-3.2,0-5.8-2.6-5.8-5.8c0-3.2,2.6-5.8,5.8-5.8h7.2
	c5.7,0,10.3-4.6,10.3-10.3c0-5.7-4.6-10.3-10.3-10.3h-22.6c-0.9,0-1.7-0.8-1.7-1.7c0-0.9,0.8-1.7,1.7-1.7h2.5c1,0,1.8-0.8,1.8-1.8
	c0-1-0.8-1.8-1.8-1.8h-17.7c-1.2,0-2.2,1-2.2,2.2c0,1.2,1,2.2,2.2,2.2h6.9c2,0,3.7,1.7,3.7,3.7l0,0c0,2-1.7,3.7-3.7,3.7h-3.3
	c-4.7,0-8.6,3.8-8.6,8.6s3.8,8.6,8.6,8.6h7c1.6,0,2.9,1.3,2.9,2.9c0,1.6-1.3,2.9-2.9,2.9h-2.7c-3.1,0-5.6,2.5-5.6,5.6
	s2.5,5.6,5.6,5.6h36.5c2,0,3.7,1.7,3.6,3.7l-0.1,2.8h7.3v-5.8C501.8,380.7,498.5,377.4,494.5,377.4z M470.8,355.7
	c0-0.9,0.7-1.7,1.7-1.7h9.9c0.9,0,1.7,0.7,1.7,1.7c0,0.9-0.7,1.7-1.7,1.7h-9.9C471.5,357.3,470.8,356.6,470.8,355.7z"/>
<path id="XMLID_164_" class="st2" d="M441.5,337.8h-3c-1.1,0-2-0.9-2-2v0c0-1.1,0.9-2,2-2h3c1.1,0,2,0.9,2,2v0
	C443.5,336.9,442.6,337.8,441.5,337.8z"/>
<g id="XMLID_143_">
	<path id="XMLID_4_" class="st4" d="M682.2,562.9L678,556c-0.9-1.5-0.4-3.5,1.1-4.5l0,0c1.5-0.9,3.5-0.4,4.5,1.1l4.2,6.9
		c0.9,1.5,0.4,3.5-1.1,4.5h0C685.1,565,683.1,564.5,682.2,562.9z"/>
	<path class="st4" d="M690.2,560.3l-6.8-4.3c-1.5-1-2-3-1-4.5l0,0c1-1.5,3-2,4.5-1l6.8,4.3c1.5,1,2,3,1,4.5l0,0
		C693.8,560.8,691.8,561.2,690.2,560.3z"/>
	<path class="st4" d="M695.7,554.9l-8-1.1c-1.8-0.2-3-1.9-2.8-3.7l0,0c0.2-1.8,1.9-3,3.7-2.8l8,1.1c1.8,0.2,3,1.9,2.8,3.7l0,0
		C699.1,553.9,697.5,555.1,695.7,554.9z"/>
	<path class="st4" d="M698.5,548.3l-8,1.1c-1.8,0.3-3.4-1-3.7-2.8l0,0c-0.3-1.8,1-3.4,2.8-3.7l8-1.1c1.8-0.3,3.4,1,3.7,2.8v0
		C701.5,546.4,700.3,548,698.5,548.3z"/>
	<path class="st4" d="M699.7,541.5l-7.7,2.4c-1.7,0.5-3.5-0.4-4.1-2.2l0,0c-0.5-1.7,0.4-3.5,2.2-4.1l7.7-2.4
		c1.7-0.5,3.5,0.4,4.1,2.2l0,0C702.3,539.2,701.4,541,699.7,541.5z"/>
	<path class="st4" d="M699.9,534.5l-7.5,2.9c-1.7,0.6-3.6-0.2-4.2-1.9h0c-0.6-1.7,0.2-3.6,1.9-4.2l7.5-2.9c1.7-0.6,3.6,0.2,4.2,1.9
		l0,0C702.4,532,701.6,533.8,699.9,534.5z"/>
	<path class="st4" d="M699.7,527.5l-7.2,3.7c-1.6,0.8-3.6,0.2-4.4-1.4l0,0c-0.8-1.6-0.2-3.6,1.4-4.4l7.2-3.7
		c1.6-0.8,3.6-0.2,4.4,1.4l0,0C701.9,524.7,701.3,526.7,699.7,527.5z"/>
	<path id="XMLID_3_" class="st4" d="M699.1,522.8l-7.2,3.7c-1.6,0.8-3.6,0.2-4.4-1.4l0,0c-0.8-1.6-0.2-3.6,1.4-4.4l7.2-3.7
		c1.6-0.8,3.6-0.2,4.4,1.4l0,0C701.3,520,700.7,522,699.1,522.8z"/>
</g>
<path id="XMLID_112_" class="st3" d="M507.1,396.8c-7.3,0-13.2,5.9-13.2,13.2c0,7.3,5.9,13.2,13.2,13.2c7.3,0,13.2-5.9,13.2-13.2
	C520.3,402.7,514.4,396.8,507.1,396.8z M507.1,418.1c-4.4,0-8-3.6-8-8c0-4.4,3.6-8,8-8s8,3.6,8,8
	C515.1,414.5,511.5,418.1,507.1,418.1z"/>
<path id="XMLID_105_" class="st6" d="M518,403.1h-1.4h-10c-3,0-5,3.2-3.5,5.9c2.1,4,6.4,6.8,11.3,6.8h1.3v15h13.7v-16.4
	C529.3,408.2,524.2,403.1,518,403.1z"/>
<path id="XMLID_114_" class="st7" d="M518,403.1h-1.4h-4.3c6.3,0,11.4,5.1,11.4,11.4v16.4h5.7v-16.4
	C529.3,408.2,524.2,403.1,518,403.1z"/>
<path id="XMLID_108_" class="st3" d="M518,403.1h-1.4h-11.5c-2.1,0-3.5,2-2.9,3.9c1.7,5.1,6.5,8.8,12.1,8.8h1.3v15h13.7v-16.4
	C529.3,408.2,524.2,403.1,518,403.1z"/>
<path id="XMLID_5_" class="st8" d="M479.5,428.9h19.2c4.2,0,7.7-3.4,7.7-7.7v-29.9h-34.6v29.9C471.8,425.4,475.2,428.9,479.5,428.9z
	"/>
<path id="XMLID_93_" class="st9" d="M471.8,418.1h4.5c6.2,0,11.1-5,11.1-11.1v-4.3l2.3,1.8"/>
<path id="XMLID_122_" class="st10" d="M496.3,391.2v29.9c0,4.2-3.4,7.7-7.7,7.7h10c4.2,0,7.7-3.4,7.7-7.7v-29.9H496.3z"/>
<path id="XMLID_104_" class="st3" d="M479.5,428.9h19.2c4.2,0,7.7-3.4,7.7-7.7v-29.9h-34.6v29.9
	C471.8,425.4,475.2,428.9,479.5,428.9z"/>
<polygon id="XMLID_98_" class="st11" points="564.7,431.9 569.7,442.2 577.1,437.1 "/>
<polygon id="XMLID_101_" class="st9" points="564.7,431.9 569.7,442.2 577.1,437.1 "/>
<rect id="XMLID_79_" x="552.1" y="562.9" transform="matrix(-0.8495 0.5276 -0.5276 -0.8495 1361.3646 845.4207)" class="st6" width="16.1" height="108.1"/>
<rect id="XMLID_49_" x="552.1" y="562.9" transform="matrix(-0.8495 0.5276 -0.5276 -0.8495 1361.3646 845.4207)" class="st3" width="16.1" height="108.1"/>
<polygon id="XMLID_50_" class="st6" points="375.6,640 481.5,554.8 491.7,567.1 385.8,652.4 "/>
<polygon id="XMLID_138_" class="st7" points="387.2,630.7 396.9,643.5 406.5,636 396.8,622.9 "/>
<polygon id="XMLID_77_" class="st3" points="375.6,640 481.5,554.8 491.7,567.1 385.8,652.4 "/>
<path id="XMLID_64_" class="st3" d="M603.5,431.9l-7.6-8.8c-3.2-3.7-8.8-4.1-12.5-1c-3.8,3.2-4.2,8.9-1,12.6l7.6,8.8
	c12,13.9,10.5,35-3.5,47l0,0c-13.9,12-35,10.5-47-3.5c-5.2-6.1-8.1-13.8-8.1-21.8V429h-17.8v36.3c0,12.3,4.4,24.1,12.4,33.4l0,0
	c18.5,21.4,50.8,23.8,72.2,5.3l0,0C619.6,485.7,621.9,453.3,603.5,431.9z"/>
<path id="XMLID_102_" class="st11" d="M574.8,437.1c0,0,11.5,11.5,18.9,21.9c7.3,10.3,12.7,24,12.7,26.7c4.2,2.7,5.3,4.2,6,3.5
	c0.7-0.7,0.7-4.7,0.7-8.2C613.1,477.4,580.6,433.2,574.8,437.1z"/>
<path id="XMLID_103_" class="st9" d="M574.8,437.1c0,0,11.5,11.5,18.9,21.9c7.3,10.3,12.7,24,12.7,26.7c4.2,2.7,5.3,4.2,6,3.5
	c0.7-0.7,0.7-4.7,0.7-8.2C613.1,477.4,580.6,433.2,574.8,437.1z"/>
<path id="XMLID_135_" class="st12" d="M609.8,669.3l-78.1,23.7c-1.4,0.4-2.9-0.4-3.4-1.8l-0.1-0.2c-0.4-1.4,0.4-2.9,1.8-3.4
	l78.1-23.7c1.4-0.4,2.9,0.4,3.4,1.8l0.1,0.2C612,667.4,611.2,668.9,609.8,669.3z"/>
<path id="XMLID_134_" class="st3" d="M609.8,669.3l-78.1,23.7c-1.4,0.4-2.9-0.4-3.4-1.8l-0.1-0.2c-0.4-1.4,0.4-2.9,1.8-3.4
	l78.1-23.7c1.4-0.4,2.9,0.4,3.4,1.8l0.1,0.2C612,667.4,611.2,668.9,609.8,669.3z"/>
<path id="XMLID_133_" class="st13" d="M597.3,649.2l-0.3,0.1c-1.7,3-5.3,5.7-9.9,7.1c-3.4,1-6.8,1.2-9.6,0.5c-2.5-0.6-5.1-0.7-7.6,0
	l-30.8,8.6c-3.7,1-6.6,3.8-8.1,7.7l-3.3,8.6c-1.1,2.9,1.4,6.2,4.1,5.4l75.6-23l-3.2-10.4C603.2,650.5,600.1,648.5,597.3,649.2z"/>
<path id="XMLID_132_" class="st14" d="M531,673.3l-0.5,1.4c2.6,2,6.1,2.8,9.6,1.8l47.2-14.4c4.5-1.4,7.3-5.4,7.4-9.9
	c-1.9,1.8-4.5,3.3-7.5,4.2c-3.4,1-6.8,1.2-9.6,0.5c-2.5-0.6-5.1-0.7-7.6,0l-30.8,8.6C535.4,666.5,532.5,669.3,531,673.3z"/>
<path id="XMLID_131_" class="st3" d="M597.3,649.2l-0.3,0.1c-1.7,3-5.3,5.7-9.9,7.1c-3.4,1-6.8,1.2-9.6,0.5c-2.5-0.6-5.1-0.7-7.6,0
	l-30.8,8.6c-3.7,1-6.6,3.8-8.1,7.7l-3.3,8.6c-1.1,2.9,1.4,6.2,4.1,5.4l75.6-23l-3.2-10.4C603.2,650.5,600.1,648.5,597.3,649.2z"/>
<polygon id="XMLID_100_" class="st3" points="569.9,665.9 575.2,656.5 571.2,656.6 "/>
<path id="XMLID_7_" class="st6" d="M555,411.2c42.6,26.6,71.9,69.5,81.7,118.1h13.8c-7.8-49.6-35.9-93.8-77.8-122"/>
<path id="XMLID_10_" class="st3" d="M638.1,581.1l11.1-7.2h-56.1l11.1,7.2C614.6,587.8,627.8,587.8,638.1,581.1z"/>
<path id="XMLID_2_" class="st4" d="M638.1,581.1l11.1-7.2h-56.1l11.1,7.2C614.6,587.8,627.8,587.8,638.1,581.1z"/>
<path id="XMLID_26_" class="st6" d="M569.5,408.8c11.5-4.8,19.7-16.2,19.7-29.5v-10.8h2.2c7.6,0,13.8-6.2,13.8-13.8
	s-5.3-14.7-13-14.7l-3.7,0.3l0.6-17c0-17.7-14.3-32-32-32h0c-17.7,0-32,14.3-32,32v17.5h-9.5c-2.9,0-5.3,2.4-5.3,5.3
	c0,7.8,6.3,14.2,14.2,14.2h0.7v19c0,16.9,13.2,30.8,29.8,31.9"/>
<path id="XMLID_1_" class="st11" d="M671.4,554.6H563.5c-0.4,0-0.7,0-1.1,0.1c-8.3,0.6-14.8,7.9-14.2,16.5c0.5,7.7,6.9,14,14.7,14.4
	c3.1,0.1,6-0.6,8.4-2c10.2-5.9,21.6-9.5,33.5-9.5h66.6c5.3,0,9.6-4.3,9.6-9.6l0,0C681.1,559,676.7,554.6,671.4,554.6z"/>
<path id="XMLID_163_" class="st1" d="M564.8,576.5c-0.6-8.6,5.9-15.8,14.2-16.5c0.3,0,0.7-0.1,1.1-0.1h100c-1.6-3.2-4.8-5.3-8.6-5.3
	H563.5c-0.4,0-0.7,0-1.1,0.1c-8.3,0.6-14.8,7.9-14.2,16.5c0.5,7.7,6.9,14,14.7,14.4c1.8,0.1,3.5-0.1,5.1-0.6
	C566.2,582.5,565,579.6,564.8,576.5z"/>
<path id="XMLID_39_" class="st3" d="M671.4,554.6H563.5c-0.4,0-0.7,0-1.1,0.1c-8.3,0.6-14.8,7.9-14.2,16.5c0.5,7.7,6.9,14,14.7,14.4
	c3.1,0.1,6-0.6,8.4-2c10.2-5.9,21.6-9.5,33.5-9.5h66.6c5.3,0,9.6-4.3,9.6-9.6l0,0C681.1,559,676.7,554.6,671.4,554.6z"/>
<rect id="XMLID_15_" x="641.8" y="659.1" transform="matrix(-0.3682 0.9297 -0.9297 -0.3682 1510.7811 323.6027)" class="st4" width="7.4" height="32"/>
<path id="XMLID_20_" class="st4" d="M584.8,684.4l-2.7-6.8l26.3-10.4c1.9-0.7,4,0.2,4.8,2.1l0,0c0.7,1.9-0.2,4-2.1,4.8L584.8,684.4z
	"/>
<path id="XMLID_28_" class="st15" d="M604.8,357.5l-4.6,24.6c-1.9,9.9-11,16.7-21,15.5l-0.1,0l11.8-49.7L604.8,357.5z"/>
<path id="XMLID_36_" class="st3" d="M604.8,357.5l-4.6,24.6c-1.9,9.9-11,16.7-21,15.5l-0.1,0l11.8-49.7L604.8,357.5z"/>
<path id="XMLID_35_" class="st7" d="M525.1,362v-2.3c0-3.2-2.8-5.6-5.9-5l-3.7,1.3L525.1,362z"/>
<path id="XMLID_40_" class="st7" d="M590.9,340.8l-1.8,0v-17.1c-7.7,11.9-19.7,27.6-19.7,27.6v20.4v1.1c0,15.7-12.7,28.4-28.4,28.4
	h-7.3c5.8,6.2,14.1,10.1,23.3,10.1h0c17.7,0,32-14.3,32-32v-10.8h2.2c7.9,0,14.2-6.6,13.8-14.5C604.8,346.5,598.3,340.8,590.9,340.8
	z"/>
<path id="XMLID_46_" class="st3" d="M572.7,407.3c9.8-5.5,16.5-15.9,16.5-28v-10.8h2.2c7.6,0,13.8-6.2,13.8-13.8s-5.3-14.7-13-14.7
	l-3.7,0.3l0.6-17c0-17.7-14.3-32-32-32h0c-17.7,0-32,14.3-32,32v17.5h-9.5c-2.9,0-5.3,2.4-5.3,5.3c0,7.8,6.3,14.2,14.2,14.2h0.7v19
	c0,16.9,13.2,30.8,29.8,31.9"/>
<circle id="XMLID_24_" class="st16" cx="537.6" cy="333.8" r="2"/>
<path id="XMLID_31_" class="st9" d="M556.5,354.2v16.2c0,10.3-8.4,18.7-18.7,18.7h0c-7,0-12.6-5.7-12.6-12.6"/>
<line id="XMLID_30_" class="st9" x1="554.7" y1="353.3" x2="558.3" y2="355.2"/>
<polygon id="XMLID_32_" class="st17" points="541.7,315 538.1,322 552.2,330.6 553.1,324.6 "/>
<path id="XMLID_41_" class="st15" d="M541.7,315l-1.1,2.2c3.9,1.1,6.8,4.5,6.8,8.7c0,0.6-0.1,1.2-0.2,1.7l5,3.1l0.9-6L541.7,315z"/>
<polygon id="XMLID_23_" class="st9" points="541.7,315 538.1,322 552.2,330.6 553.1,324.6 "/>
<path id="XMLID_22_" class="st17" d="M610.4,305.7c3.4,2.1,4.9,2.7,8.2,2.7c-5.7-8-7.1-23.7-15.6-33.6c-3.8-4.5-8.1-9.4-16.3-11.9
	c-14.1-4.2-27.4,0.5-29.1,1.4c-10.3,5.5-20.6,18.1-17.6,28.9c0.3,1.2-0.7,2,0,2.9c11.3-8.6,29.1-6,37.5,5.6h0
	c6.7,9.2,4.9,24.2-1.6,32.8c-1.9,1.9-2.7,8.3-5.5,14.7l7.5-4.6c7.7-4.7,19.3-3.3,25.7,3.1l0,0c1.1,1.9,1.8,3.9,2.1,5.9
	c0.8-0.5,1.8-1.1,3-2.1c7.4-6.2,8.7-15.6,9-18C619.9,319.3,612,307.5,610.4,305.7z"/>
<path id="XMLID_42_" class="st15" d="M618.7,308.5c-5.7-8-7.1-23.7-15.6-33.6c-3.3-3.9-7-8.2-13.4-10.8c7,8.1,11.3,18.7,11.3,30.3
	c0,18.2-10.5,33.9-25.8,41.5c-1.4,2.7-2.3,8.1-4.7,13.5l7.5-4.6c7.7-4.7,19.3-3.3,25.7,3.1l0,0c1.1,1.9,1.8,3.9,2.1,5.9
	c0.8-0.5,1.8-1.1,3-2.1c7.4-6.2,8.7-15.6,9-18c2-14.3-6-26.2-7.5-27.9C613.9,307.9,615.4,308.5,618.7,308.5z"/>
<path id="XMLID_33_" class="st3" d="M610.4,305.7c3.4,2.1,4.9,2.7,8.2,2.7c-5.7-8-7.1-23.7-15.6-33.6c-3.8-4.5-8.1-9.4-16.3-11.9
	c-14.1-4.2-27.4,0.5-29.1,1.4c-10.3,5.5-20.6,18.1-17.6,28.9c0.3,1.2-0.7,2,0,2.9c11.3-8.6,29.1-6,37.5,5.6h0
	c6.7,9.2,4.9,24.2-1.6,32.8c-1.9,1.9-2.7,8.3-5.5,14.7l11.3-6.8c7.5-4.6,17.4-2.2,21.9,5.4l0,0c1.1,1.9,1.8,3.9,2.1,5.9c0,0,0,0,0,0
	c0.8-0.5,1.8-1.1,3-2.1c7.4-6.2,8.7-15.6,9-18C619.9,319.3,612,307.5,610.4,305.7z"/>
<line id="XMLID_25_" class="st9" x1="585" y1="349.9" x2="596.9" y2="358.4"/>
<line id="XMLID_29_" class="st9" x1="595.4" y1="347.9" x2="586.9" y2="359.8"/>
<path id="XMLID_38_" class="st9" d="M527.4,356.5l1.1,1c0,0,2-2.1,4.6-1C532.4,355.1,526.6,354.4,527.4,356.5z"/>
<path id="XMLID_71_" class="st3" d="M555,411.2c42.6,26.6,71.9,69.5,81.7,118.1h13.8c-7.8-49.6-35.9-93.8-77.8-122"/>
<rect id="XMLID_78_" x="487.6" y="582.3" transform="matrix(-0.5277 -0.8495 0.8495 -0.5277 328.5702 1371.467)" class="st18" width="116.1" height="24.1"/>
<path id="XMLID_146_" class="st19" d="M516.8,571.6l44.1,70.3l0,0c2.8-1.8,11.3,2.1,9.5-0.7l-40.3-60.3c-1.8-2.8-9.5-10.1-12.4-8.3
	L516.8,571.6z"/>
<path id="XMLID_137_" class="st4" d="M514.9,567.8c0,0,18.9-5.9,25.4-4.7c-6.6-12.7-9-15.2-9-15.2l-25.3,8.2L514.9,567.8z"/>
<rect id="XMLID_43_" x="487.6" y="582.3" transform="matrix(-0.5277 -0.8495 0.8495 -0.5277 328.5702 1371.467)" class="st3" width="116.1" height="24.1"/>
<path id="XMLID_76_" class="st18" d="M468.1,559.2L391,622.8l15.3,18.6l70.4-58.1c22.6-18.7,51.1-28.9,80.4-28.9h87.3
	c6.6,0,12-5.4,12-12v-12h-108C519.1,530.3,490.7,540.5,468.1,559.2z"/>
<path id="XMLID_174_" class="st19" d="M395.8,618.8l6.8,9.5l80.5-72.1l-4.1-5.1c-3.8,2.5-7.4,5.2-10.9,8.1L395.8,618.8z"/>
<path id="XMLID_140_" class="st19" d="M531,536.5l90.1,1.2c4.7,0,20.5-2.8,20.5-7.5l0,0h-93c-9.6,0-39.8,4.7-50.9,10.7
	C494.8,542.5,517.5,536.5,531,536.5z"/>
<path id="XMLID_48_" class="st3" d="M468.1,559.2L391,622.8l15.3,18.6l70.4-58.1c22.6-18.7,51.1-28.9,80.4-28.9h87.3
	c6.6,0,12-5.4,12-12v-12h-108C519.1,530.3,490.7,540.5,468.1,559.2z"/>
<path id="XMLID_37_" class="st2" d="M656.5,529.3c-6.9-45-30.2-86.1-64.9-115.2l-21.9,15.2c31.1,25.4,52.6,60.8,60.8,100H656.5z"/>
<path id="XMLID_123_" class="st0" d="M630.5,529.3h11c-8.5-41.4-30.9-78.9-63.2-106l-8.6,6C600.8,454.6,622.3,490.1,630.5,529.3z"/>
<path id="XMLID_47_" class="st3" d="M656.5,529.3c-6.9-45-30.2-86.1-64.9-115.2l-21.9,15.2c31.1,25.4,52.6,60.8,60.8,100H656.5z"/>
<path id="XMLID_95_" class="st17" d="M496.7,459.9c0,0-8.3,6.9-7.6-7.3c0.3-6.5,8.8-6.3,8.8-6.3l0.9,6.1L496.7,459.9z"/>
<path id="XMLID_94_" class="st3" d="M496.7,459.9c0,0-8.3,6.9-7.6-7.3c0.3-6.5,8.8-6.3,8.8-6.3l0.9,6.1L496.7,459.9z"/>
<path id="XMLID_60_" class="st7" d="M521.2,444.5L521.2,444.5c-4,5.6-10.2,9.2-17.1,9.9c-5.2,0.5-5.1-11.5-13.2,2.7
	c-3.2,1.7-7-1.7-8.7-3.7c-0.5-0.6-0.5-1.5,0.1-2c1.5-1.3,4.3-4.4,5.6-9.8c0.9-5.2,2.6-9,6.7-6.8C498.2,436.7,520.6,434,521.2,444.5z
	"/>
<path id="XMLID_91_" class="st3" d="M521.2,444.5L521.2,444.5c-4,5.6-10.2,9.2-17.1,9.9c-5.2,0.5-5.1-11.5-13.2,2.7
	c-3.2,1.7-6.9-1.7-8.7-3.6c-0.6-0.6-0.5-1.6,0.1-2.1c1.6-1.4,4.3-4.4,5.5-9.8c0.9-5.2,2.6-9,6.7-6.8
	C498.2,436.7,520.6,434,521.2,444.5z"/>
<path id="XMLID_89_" class="st7" d="M524.1,456.3c0,0-2.9-8.4-10.7-12.4c-0.8,3.1-4.8,6.2-8.7,7.3l2.2,3.8c1.7,3.1,0.3,7-3,8.1v0
	c-2.9,1-6-0.4-7.2-3.2l-4.9-14.9c0,0,9.6-3.5,12.5-6.5c2-2,6.7-9.5,6.7-9.5s8.7,2.1,14.6,8c4.9,4.9,9.3,13.2,9.3,13.2L524.1,456.3z"
	/>
<g id="XMLID_117_">
	<path id="XMLID_119_" class="st6" d="M502.5,462.7l-4.9-14.9c0,0,9.6-3.5,12.5-6.5c2-2,6.7-9.5,6.7-9.5s1.3,0.3,3.3,1.1
		c-4.7-2.8-9.2-3.9-9.2-3.9s-4.7,7.5-6.7,9.5c-3,2.9-12.5,6.5-12.5,6.5l4.9,14.9c1,2.5,3.6,3.9,6.2,3.4
		C502.7,463.1,502.6,462.9,502.5,462.7z"/>
	<path id="XMLID_120_" class="st6" d="M519.2,446.7c-0.1,0.4-0.3,0.8-0.5,1.2c3.8,4,5.4,8.4,5.4,8.4l3.4-1.9
		C525.8,451.8,523.1,448.7,519.2,446.7z"/>
</g>
<path id="XMLID_90_" class="st3" d="M524.1,456.3c0,0-2.9-8.4-10.7-12.4c-0.8,3.1-4.8,6.2-8.7,7.3l2.2,3.8c1.7,3.1,0.3,7-3,8.1v0
	c-2.9,1-6-0.4-7.2-3.2l-4.9-14.9c0,0,9.6-3.5,12.5-6.5c2-2,6.7-9.5,6.7-9.5s8.7,2.1,14.6,8c4.9,4.9,9.3,13.2,9.3,13.2L524.1,456.3z"
	/>
<path id="XMLID_92_" class="st9" d="M496.7,457.1l3-0.9c0,0,1.5,1.5,1.5,2.9s-3.5,2.5-3.5,2.5S495.4,458.3,496.7,457.1z"/>
<path id="XMLID_106_" class="st9" d="M485,448.8l2.4,2c0,0-0.4,2.1-1.6,2.8c-1.1,0.7-4-1.5-4-1.5S483.3,448.4,485,448.8z"/>
<path id="XMLID_74_" class="st2" d="M536.6,448l25.5,48.9c3.7,7.1,9.8,12.6,17.3,15.6h0c17.1,6.8,36.5-1.6,43.3-18.7v0
	c6.8-17.1-1.6-36.5-18.7-43.3l-10.8-4.3c-4.6-1.8-6.8-7.1-5-11.6v0c1.8-4.5,7-6.7,11.6-4.9l10.8,4.3c26.3,10.4,39.1,40.2,28.7,66.4
	v0c-10.4,26.3-40.2,39.1-66.4,28.7l0,0c-11.4-4.5-20.8-13-26.5-23.9l-25.1-48.1L536.6,448z"/>
<polygon id="XMLID_6_" class="st2" points="543.5,461.2 536.6,448 521.2,457.1 528,470.1 "/>
<path id="XMLID_118_" class="st0" d="M521.2,457.1l25.1,48.1c0.9,1.7,1.9,3.4,3,5c-0.6-3.5,3,4,3,4l-25.6-60.5L521.2,457.1z"/>
<polygon id="XMLID_116_" class="st3" points="543.5,461.2 536.6,448 521.2,457.1 528,470.1 "/>
<g id="XMLID_13_">
	<path id="XMLID_107_" class="st0" d="M589.5,440.3c1.8-4.5,7-6.7,11.6-4.9l10.8,4.3c15.4,6.1,26.2,18.9,30.4,33.8
		c-2.8-17.2-14.3-32.6-31.6-39.5l-10.8-4.3c-4.6-1.8-9.7,0.4-11.6,4.9v0c-1.1,2.7-0.8,5.7,0.7,8C589,441.8,589.2,441.1,589.5,440.3z
		"/>
	<path id="XMLID_113_" class="st0" d="M537.9,450.5l20.9,47.7c5.3,9.6,11.8,17.1,19.2,20c17.1,6.8,39-1.6,45.8-18.7v0
		c2.9-7.4,3-15.2,0.8-22.2c0.7,5.4,0.1,11.1-2.1,16.5v0c-6.8,17.1-26.2,25.5-43.3,18.7c-7.4-3-13.6-8.5-17.3-15.6L536.6,448"/>
</g>
<path id="XMLID_62_" class="st3" d="M536.6,448l25.5,48.9c3.7,7.1,9.8,12.6,17.3,15.6h0c17.1,6.8,36.5-1.6,43.3-18.7v0
	c6.8-17.1-1.6-36.5-18.7-43.3l-10.8-4.3c-4.6-1.8-6.8-7.1-5-11.6v0c1.8-4.5,7-6.7,11.6-4.9l10.8,4.3c26.3,10.4,39.1,40.2,28.7,66.4
	v0c-10.4,26.3-40.2,39.1-66.4,28.7l0,0c-11.4-4.5-20.8-13-26.5-23.9l-25.1-48.1L536.6,448z"/>
<polygon id="XMLID_72_" class="st2" points="592,411.3 575.9,439.2 557.7,427.2 584.6,408.3 "/>
<path id="XMLID_115_" class="st0" d="M578.5,412.6l-20.8,14.6l8.2,5.4c0.1-0.1,0.2-0.1,0.3-0.2C575.3,427.4,580.5,418.9,578.5,412.6
	z"/>
<polygon id="XMLID_34_" class="st3" points="592,411.3 575.9,439.2 557.7,427.2 584.6,408.3 "/>
<circle id="XMLID_80_" class="st5" cx="569.8" cy="684.8" r="19.6"/>
<path id="XMLID_170_" class="st20" d="M558.5,694.6c0-10.8,8.8-19.6,19.6-19.6c3.6,0,7,1,9.9,2.7c-2.9-7.3-10-12.5-18.3-12.5
	c-10.8,0-19.6,8.8-19.6,19.6c0,7.2,3.9,13.5,9.7,16.9C559,699.5,558.5,697.1,558.5,694.6z"/>
<circle id="XMLID_19_" class="st3" cx="569.8" cy="684.8" r="19.6"/>
<circle id="XMLID_18_" class="st3" cx="569.8" cy="684.8" r="9.7"/>
<circle id="XMLID_81_" class="st4" cx="569.8" cy="684.8" r="9.7"/>
<path id="XMLID_82_" class="st11" d="M592.6,675.1c-3.3,0-6.3-1.4-8.6-3.8c-3.6-3.8-8.6-6.1-14.2-6.1c-5.5,0-10.4,2.2-14,5.9
	c-2.5,2.5-5.7,4-9.2,4h-0.1c3.8-9.1,12.8-15.5,23.3-15.5c10.5,0,19.5,6.4,23.3,15.5H592.6z"/>
<path id="XMLID_167_" class="st1" d="M563.7,660.3c-7.8,1.9-14.1,7.5-17.2,14.8h0.1c3.4,0,6.6-1.3,8.9-3.7c2-2.1,6.1-3.8,9.4-4.8
	c2.9-0.9,3.1-5.1,0.2-6.1C564.8,660.3,564.2,660.2,563.7,660.3z"/>
<path id="XMLID_17_" class="st3" d="M592.6,675.1c-3.3,0-6.3-1.4-8.6-3.8c-3.6-3.8-8.6-6.1-14.2-6.1c-5.5,0-10.4,2.2-14,5.9
	c-2.5,2.5-5.7,4-9.2,4h-0.1c3.8-9.1,12.8-15.5,23.3-15.5c10.5,0,19.5,6.4,23.3,15.5H592.6z"/>
<circle id="XMLID_87_" class="st5" cx="674.9" cy="684.8" r="19.6"/>
<path id="XMLID_166_" class="st20" d="M664.3,694.6c0-10.8,8.8-19.6,19.6-19.6c3.6,0,7,1,9.9,2.7c-2.9-7.3-10-12.5-18.3-12.5
	c-10.8,0-19.6,8.8-19.6,19.6c0,7.2,3.9,13.5,9.7,16.9C664.8,699.5,664.3,697.1,664.3,694.6z"/>
<circle id="XMLID_86_" class="st3" cx="674.9" cy="684.8" r="19.6"/>
<rect id="XMLID_57_" x="307.8" y="523.2" class="st3" width="13.6" height="186.7"/>
<rect id="XMLID_69_" x="307.8" y="523.2" class="st4" width="13.6" height="186.7"/>
<circle id="XMLID_85_" class="st3" cx="674.9" cy="684.8" r="9.7"/>
<path id="XMLID_14_" class="st11" d="M697.7,675.1c-3.3,0-6.3-1.4-8.6-3.8c-3.6-3.8-8.6-6.1-14.2-6.1c-5.5,0-10.4,2.2-14,5.9
	c-2.5,2.5-5.7,4-9.2,4h-0.1c3.8-9.1,12.8-15.5,23.3-15.5c10.5,0,19.5,6.4,23.3,15.5H697.7z"/>
<circle id="XMLID_84_" class="st4" cx="674.9" cy="684.8" r="9.7"/>
<path id="XMLID_16_" class="st3" d="M697.7,675.1c-3.3,0-6.3-1.4-8.6-3.8c-3.6-3.8-8.6-6.1-14.2-6.1c-5.5,0-10.4,2.2-14,5.9
	c-2.5,2.5-5.7,4-9.2,4h-0.1c3.8-9.1,12.8-15.5,23.3-15.5c10.5,0,19.5,6.4,23.3,15.5H697.7z"/>
<path id="XMLID_67_" class="st21" d="M537.8,504.6H244.2c-2.4,0-4.3-1.9-4.3-4.3v-8.1c0-2.4,1.9-4.3,4.3-4.3h293.6
	c2.4,0,4.3,1.9,4.3,4.3v8.1C542.1,502.7,540.2,504.6,537.8,504.6z"/>
<path id="XMLID_124_" class="st22" d="M351.9,497.1c-42.7,0-81.1,2.9-107.4,7.5h214.9C433,500,394.6,497.1,351.9,497.1z"/>
<path id="XMLID_21_" class="st3" d="M537.8,504.6H244.2c-2.4,0-4.3-1.9-4.3-4.3v-8.1c0-2.4,1.9-4.3,4.3-4.3h293.6
	c2.4,0,4.3,1.9,4.3,4.3v8.1C542.1,502.7,540.2,504.6,537.8,504.6z"/>
<path id="XMLID_45_" class="st3" d="M506.1,526H275.8c-5.9,0-10.7-4.8-10.7-10.7v0c0-5.9,4.8-10.7,10.7-10.7h230.3
	c5.9,0,10.7,4.8,10.7,10.7v0C516.8,521.2,512,526,506.1,526z"/>
<path id="XMLID_68_" class="st4" d="M506.1,526H275.8c-5.9,0-10.7-4.8-10.7-10.7v0c0-5.9,4.8-10.7,10.7-10.7h230.3
	c5.9,0,10.7,4.8,10.7,10.7v0C516.8,521.2,512,526,506.1,526z"/>
<path id="XMLID_147_" class="st23" d="M361,521c-32.9,0-61.1,2.1-73.5,5h147C422.1,523,393.9,521,361,521z"/>
<circle id="XMLID_65_" class="st24" cx="365.1" cy="465.1" r="6.5"/>
<circle id="XMLID_55_" class="st3" cx="365.1" cy="465.1" r="6.5"/>
<path id="XMLID_58_" class="st25" d="M363.2,462.5l0.5-0.1l-24.5-136.1l-0.5,0.1c-4.7,0.9-7.9,5.4-7,10.1l21.4,119
	C353.9,460.2,358.4,463.3,363.2,462.5z"/>
<path id="XMLID_75_" class="st26" d="M352.7,453.4c0-15.5-1.4-32.3-4.5-49.6c-3.2-18.1-7.9-35.1-13.5-50.1L352.7,453.4z"/>
<path id="XMLID_56_" class="st3" d="M363.2,462.5l0.5-0.1l-24.5-136.1l-0.5,0.1c-4.7,0.9-7.9,5.4-7,10.1l21.4,119
	C353.9,460.2,358.4,463.3,363.2,462.5z"/>
<rect id="XMLID_59_" x="467.6" y="524" class="st3" width="13.6" height="186.7"/>
<rect id="XMLID_70_" x="467.6" y="524" class="st4" width="13.6" height="186.7"/>
<path id="XMLID_63_" class="st25" d="M377.7,480.9h125c6.1,0,11.1-5,11.1-11.1v-4.7H366.6v4.7C366.6,475.9,371.6,480.9,377.7,480.9z
	"/>
<path id="XMLID_73_" class="st24" d="M502.7,477.4h-125c-6.1,0-11.1-5-11.1-11.1v3.5c0,6.1,5,11.1,11.1,11.1h125
	c6.1,0,11.1-5,11.1-11.1v-3.5C513.8,472.4,508.8,477.4,502.7,477.4z"/>
<path id="XMLID_44_" class="st3" d="M377.7,480.9h125c6.1,0,11.1-5,11.1-11.1v-4.7H366.6v4.7C366.6,475.9,371.6,480.9,377.7,480.9z"
	/>
<rect id="XMLID_51_" x="385.1" y="480.9" transform="matrix(-1 -5.135460e-11 5.135460e-11 -1 880.3967 968.7192)" class="st3" width="110.2" height="7"/>
<rect id="XMLID_66_" x="385.1" y="480.9" transform="matrix(-1 -5.135460e-11 5.135460e-11 -1 880.3967 968.7192)" class="st4" width="110.2" height="7"/>
<rect id="XMLID_52_" x="440.3" y="469.5" transform="matrix(-1 -4.480783e-11 4.480783e-11 -1 890.5983 942.3613)" class="st9" width="9.9" height="3.3"/>
<rect id="XMLID_54_" x="426.2" y="469.5" transform="matrix(-1 -4.554236e-11 4.554236e-11 -1 862.3892 942.3613)" class="st9" width="9.9" height="3.3"/>
<circle id="XMLID_53_" class="st9" cx="379.5" cy="471.2" r="1.8"/>
<path id="XMLID_9_" class="st11" d="M732,413.8c1.5-11.5-6.7-22-18.3-23.1c-11.1-1.1-20.9,7.1-22.4,18.2l-13.7,101.9
	c-0.6,4.6,2.6,8.8,7.2,9.4l12.1,1.6c4.6,0.6,8.8-2.6,9.4-7.2l2-15c3.7-27.5,10.5-54.7,22.1-79.9C731.1,417.9,731.7,415.9,732,413.8z
	"/>
<path id="XMLID_158_" class="st1" d="M704.2,499.6l-2,15c-0.5,3.5-3.1,6.3-6.4,7l1.1,0.1c4.6,0.6,8.8-2.6,9.4-7.2l2-15
	c3.7-27.5,10.5-54.7,22.1-79.9c0.8-1.8,1.4-3.8,1.7-5.8c1.5-11.5-6.7-22-18.3-23.1c-1.3-0.1-2.7-0.1-3.9,0
	c11.6,1.2,19.8,11.7,18.3,23.1c-0.3,2.1-0.9,4-1.7,5.8"/>
<path id="XMLID_161_" class="st1" d="M691.3,408.9l-10.6,79c9.2-26.3,18.1-54.6,18.1-76.6c0-14.9,18.1-19.9,23.1-14.9
	c-3.3-6.1-13.8-6.7-19.5-3.4C696.2,396.5,691.9,404,691.3,408.9z"/>
<path id="XMLID_109_" class="st3" d="M732,413.8c1.5-11.5-6.7-22-18.3-23.1c-11.1-1.1-20.9,7.1-22.4,18.2l-13.7,101.9
	c-0.6,4.6,2.6,8.8,7.2,9.4l12.1,1.6c4.6,0.6,8.8-2.6,9.4-7.2l2-15c3.7-27.5,10.5-54.7,22.1-79.9C731.1,417.9,731.7,415.9,732,413.8z
	"/>
<path id="XMLID_130_" class="st12" d="M389,672.5l-68.6-44.2c-1.3-0.8-1.6-2.5-0.8-3.7l0.1-0.2c0.8-1.3,2.5-1.6,3.7-0.8l68.6,44.2
	c1.3,0.8,1.6,2.5,0.8,3.7l-0.1,0.2C392,672.9,390.3,673.3,389,672.5z"/>
<path id="XMLID_96_" class="st3" d="M389,672.5l-68.6-44.2c-1.3-0.8-1.6-2.5-0.8-3.7l0.1-0.2c0.8-1.3,2.5-1.6,3.7-0.8l68.6,44.2
	c1.3,0.8,1.6,2.5,0.8,3.7l-0.1,0.2C392,672.9,390.3,673.3,389,672.5z"/>
<path id="XMLID_128_" class="st13" d="M396.3,650l-0.3-0.2c-3.4,0.6-7.8-0.4-11.8-3c-3-1.9-5.3-4.5-6.6-7c-1.2-2.3-2.8-4.4-4.9-5.8
	l-26.5-17.9c-3.1-2.1-7.2-2.5-11.1-1.2l-8.6,3c-2.9,1-3.8,5.1-1.5,6.6l66.4,42.8l5.9-9.2C399.1,655.2,398.7,651.6,396.3,650z"/>
<path id="XMLID_127_" class="st27" d="M335.1,614.9l-1.4,0.5c0.1,3.3,1.8,6.5,4.8,8.5l41.5,26.7c3.9,2.5,8.9,2.1,12.3-0.7
	c-2.6-0.3-5.4-1.3-8.1-3c-3-1.9-5.3-4.5-6.6-7c-1.2-2.3-2.8-4.4-4.9-5.8l-26.5-17.9C343.1,613.9,339,613.5,335.1,614.9z"/>
<path id="XMLID_125_" class="st3" d="M396.3,650l-0.3-0.2c-3.4,0.6-7.8-0.4-11.8-3c-3-1.9-5.3-4.5-6.6-7c-1.2-2.3-2.8-4.4-4.9-5.8
	l-26.5-17.9c-3.1-2.1-7.2-2.5-11.1-1.2l-8.6,3c-2.9,1-3.8,5.1-1.5,6.6l66.4,42.8l5.9-9.2C399.1,655.2,398.7,651.6,396.3,650z"/>
<polygon id="XMLID_97_" class="st3" points="365.9,639.8 376.4,637.8 373.7,634.8 "/>
<polygon id="XMLID_136_" class="st25" points="394.7,611.9 386.4,620.1 406.7,645.6 416.7,637.3 "/>
<path id="XMLID_145_" class="st28" d="M394.1,612.5l-7.7,7.6l11,13.8c1.8-2.6,2.9-5.7,2.9-9C400.3,619.9,397.9,615.4,394.1,612.5z"
	/>
<polygon id="XMLID_99_" class="st3" points="394.7,611.9 386.4,620.1 406.7,645.6 416.7,637.3 "/>
<polygon id="XMLID_141_" class="st25" points="558.5,644.5 564.8,654.4 594,639.8 588,628.3 "/>
<polygon id="XMLID_160_" class="st25" points="558.5,644.5 564.8,654.4 594,639.8 588,628.3 "/>
<path id="XMLID_165_" class="st28" d="M569.8,645.7c0-2.2-1.2-4.1-3.2-5.7l-8.1,4.5l5.5,8.6C567.5,651.4,569.8,648.7,569.8,645.7z"
	/>
<polygon id="XMLID_139_" class="st3" points="558.5,644.5 564.8,654.4 594,639.8 588,628.3 "/>
<ellipse id="XMLID_61_" class="st9" cx="477" cy="404.9" rx="0.8" ry="1.3"/>
<path id="XMLID_168_" class="st4" d="M394.7,476.1h-5c-1.3,0-2.4-1.1-2.4-2.4v-3c0-1.3,1.1-2.4,2.4-2.4h5c1.3,0,2.4,1.1,2.4,2.4v3
	C397.1,475,396,476.1,394.7,476.1z"/>
</svg>
